<svg width="18" height="18" viewBox="0 0 18 18" fill="none" xmlns="http://www.w3.org/2000/svg">
<mask id="mask0_865_3691" style="mask-type:alpha" maskUnits="userSpaceOnUse" x="0" y="0" width="18" height="18">
<rect width="17.3032" height="17.3032" fill="#D9D9D9"/>
</mask>
<g mask="url(#mask0_865_3691)">
</g>
<path d="M8.65137 5.33789V14.6163" stroke="white" stroke-width="1.32548" stroke-linecap="round" stroke-linejoin="round"/>
<path d="M2.68716 12.6281C2.51139 12.6281 2.34281 12.5583 2.21853 12.434C2.09424 12.3097 2.02441 12.1412 2.02441 11.9654V3.34975C2.02441 3.17398 2.09424 3.00541 2.21853 2.88112C2.34281 2.75684 2.51139 2.68701 2.68716 2.68701H6.00086C6.70394 2.68701 7.37823 2.96631 7.87538 3.46346C8.37253 3.96061 8.65183 4.6349 8.65183 5.33798C8.65183 4.6349 8.93113 3.96061 9.42828 3.46346C9.92543 2.96631 10.5997 2.68701 11.3028 2.68701H14.6165C14.7923 2.68701 14.9608 2.75684 15.0851 2.88112C15.2094 3.00541 15.2792 3.17398 15.2792 3.34975V11.9654C15.2792 12.1412 15.2094 12.3097 15.0851 12.434C14.9608 12.5583 14.7923 12.6281 14.6165 12.6281H10.6401C10.1127 12.6281 9.60703 12.8376 9.23417 13.2105C8.8613 13.5833 8.65183 14.0891 8.65183 14.6164C8.65183 14.0891 8.44236 13.5833 8.06949 13.2105C7.69663 12.8376 7.19092 12.6281 6.66361 12.6281H2.68716Z" stroke="white" stroke-width="1.32548" stroke-linecap="round" stroke-linejoin="round"/>
</svg>
