<svg width="16" height="16" viewBox="0 0 16 16" fill="none" xmlns="http://www.w3.org/2000/svg">
<path d="M7.28936 14.4012C7.49084 14.5175 7.71939 14.5788 7.95204 14.5788C8.18469 14.5788 8.41324 14.5175 8.61472 14.4012L13.2535 11.7502C13.4548 11.634 13.622 11.4669 13.7383 11.2657C13.8546 11.0644 13.9159 10.8361 13.9162 10.6037V5.30175C13.9159 5.06931 13.8546 4.84102 13.7383 4.63978C13.622 4.43854 13.4548 4.27143 13.2535 4.15521L8.61472 1.50424C8.41324 1.38791 8.18469 1.32666 7.95204 1.32666C7.71939 1.32666 7.49084 1.38791 7.28936 1.50424L2.6506 4.15521C2.44931 4.27143 2.28213 4.43854 2.16582 4.63978C2.04951 4.84102 1.98815 5.06931 1.98792 5.30175V10.6037C1.98815 10.8361 2.04951 11.0644 2.16582 11.2657C2.28213 11.4669 2.44931 11.634 2.6506 11.7502L7.28936 14.4012Z" stroke="white" stroke-width="1.32548" stroke-linecap="round" stroke-linejoin="round"/>
<path d="M7.95215 14.5803V7.95288" stroke="white" stroke-width="1.32548" stroke-linecap="round" stroke-linejoin="round"/>
<path d="M2.18005 4.63892L7.952 7.95262L13.724 4.63892" stroke="white" stroke-width="1.32548" stroke-linecap="round" stroke-linejoin="round"/>
<path d="M4.96997 2.82983L10.9341 6.24295" stroke="white" stroke-width="1.32548" stroke-linecap="round" stroke-linejoin="round"/>
</svg>
