<svg width="20" height="20" viewBox="0 0 20 20" fill="none" xmlns="http://www.w3.org/2000/svg">
<path d="M7.49639 2.49878H3.33171C2.8717 2.49878 2.49878 2.8717 2.49878 3.33171V9.16226C2.49878 9.62227 2.8717 9.99519 3.33171 9.99519H7.49639C7.9564 9.99519 8.32932 9.62227 8.32932 9.16226V3.33171C8.32932 2.8717 7.9564 2.49878 7.49639 2.49878Z" stroke="white" stroke-width="1.66587" stroke-linecap="round" stroke-linejoin="round"/>
<path d="M16.6587 2.49878H12.4941C12.0341 2.49878 11.6611 2.8717 11.6611 3.33171V5.83052C11.6611 6.29054 12.0341 6.66345 12.4941 6.66345H16.6587C17.1188 6.66345 17.4917 6.29054 17.4917 5.83052V3.33171C17.4917 2.8717 17.1188 2.49878 16.6587 2.49878Z" stroke="white" stroke-width="1.66587" stroke-linecap="round" stroke-linejoin="round"/>
<path d="M16.6587 9.99524H12.4941C12.0341 9.99524 11.6611 10.3682 11.6611 10.8282V16.6587C11.6611 17.1187 12.0341 17.4917 12.4941 17.4917H16.6587C17.1188 17.4917 17.4917 17.1187 17.4917 16.6587V10.8282C17.4917 10.3682 17.1188 9.99524 16.6587 9.99524Z" stroke="white" stroke-width="1.66587" stroke-linecap="round" stroke-linejoin="round"/>
<path d="M7.49639 13.327H3.33171C2.8717 13.327 2.49878 13.6999 2.49878 14.1599V16.6587C2.49878 17.1187 2.8717 17.4916 3.33171 17.4916H7.49639C7.9564 17.4916 8.32932 17.1187 8.32932 16.6587V14.1599C8.32932 13.6999 7.9564 13.327 7.49639 13.327Z" stroke="white" stroke-width="1.66587" stroke-linecap="round" stroke-linejoin="round"/>
</svg>
