<svg width="20" height="20" viewBox="0 0 20 20" fill="none" xmlns="http://www.w3.org/2000/svg">
<g clip-path="url(#clip0_856_19752)">
<path d="M13.3269 17.4916V15.8258C13.3269 14.9421 12.9758 14.0947 12.351 13.4699C11.7262 12.845 10.8788 12.494 9.99512 12.494H4.99751C4.11388 12.494 3.26644 12.845 2.64162 13.4699C2.01679 14.0947 1.66577 14.9421 1.66577 15.8258V17.4916" stroke="white" stroke-width="1.66587" stroke-linecap="round" stroke-linejoin="round"/>
<path d="M7.49653 9.16226C9.3366 9.16226 10.8283 7.67059 10.8283 5.83052C10.8283 3.99045 9.3366 2.49878 7.49653 2.49878C5.65647 2.49878 4.16479 3.99045 4.16479 5.83052C4.16479 7.67059 5.65647 9.16226 7.49653 9.16226Z" stroke="white" stroke-width="1.66587" stroke-linecap="round" stroke-linejoin="round"/>
<path d="M18.3245 17.4916V15.8258C18.3239 15.0875 18.0782 14.3704 17.626 13.787C17.1737 13.2036 16.5404 12.7868 15.8257 12.6023" stroke="white" stroke-width="1.66587" stroke-linecap="round" stroke-linejoin="round"/>
<path d="M13.3269 2.60706C14.0436 2.79055 14.6788 3.20735 15.1324 3.79175C15.586 4.37614 15.8322 5.09489 15.8322 5.83468C15.8322 6.57447 15.586 7.29321 15.1324 7.87761C14.6788 8.462 14.0436 8.8788 13.3269 9.0623" stroke="white" stroke-width="1.66587" stroke-linecap="round" stroke-linejoin="round"/>
</g>
<defs>
<clipPath id="clip0_856_19752">
<rect width="19.9904" height="19.9904" fill="white"/>
</clipPath>
</defs>
</svg>
