<svg width="20" height="20" viewBox="0 0 20 20" fill="none" xmlns="http://www.w3.org/2000/svg">
<g clip-path="url(#clip0_856_19793)">
<path d="M10.1784 1.66589H9.81194C9.37012 1.66589 8.9464 1.8414 8.63399 2.15382C8.32158 2.46623 8.14607 2.88995 8.14607 3.33176V3.48169C8.14577 3.77382 8.06866 4.06074 7.92246 4.31366C7.77626 4.56658 7.56613 4.7766 7.31314 4.92267L6.95497 5.1309C6.70173 5.27711 6.41446 5.35409 6.12204 5.35409C5.82962 5.35409 5.54235 5.27711 5.2891 5.1309L5.16416 5.06427C4.7819 4.84376 4.32776 4.78394 3.90144 4.89794C3.47511 5.01194 3.11144 5.29044 2.89025 5.67231L2.70701 5.98882C2.4865 6.37109 2.42668 6.82523 2.54068 7.25155C2.65468 7.67788 2.93318 8.04155 3.31505 8.26274L3.43999 8.34603C3.69177 8.49139 3.90112 8.7001 4.04724 8.95143C4.19336 9.20276 4.27117 9.48796 4.27292 9.77868V10.2035C4.27409 10.497 4.19767 10.7857 4.0514 11.0402C3.90513 11.2947 3.69421 11.506 3.43999 11.6528L3.31505 11.7277C2.93318 11.9489 2.65468 12.3126 2.54068 12.7389C2.42668 13.1653 2.4865 13.6194 2.70701 14.0017L2.89025 14.3182C3.11144 14.7 3.47511 14.9785 3.90144 15.0925C4.32776 15.2065 4.7819 15.1467 5.16416 14.9262L5.2891 14.8596C5.54235 14.7134 5.82962 14.6364 6.12204 14.6364C6.41446 14.6364 6.70173 14.7134 6.95497 14.8596L7.31314 15.0678C7.56613 15.2139 7.77626 15.4239 7.92246 15.6768C8.06866 15.9297 8.14577 16.2167 8.14607 16.5088V16.6587C8.14607 17.1005 8.32158 17.5243 8.63399 17.8367C8.9464 18.1491 9.37012 18.3246 9.81194 18.3246H10.1784C10.6202 18.3246 11.044 18.1491 11.3564 17.8367C11.6688 17.5243 11.8443 17.1005 11.8443 16.6587V16.5088C11.8446 16.2167 11.9217 15.9297 12.0679 15.6768C12.2141 15.4239 12.4242 15.2139 12.6772 15.0678L13.0354 14.8596C13.2886 14.7134 13.5759 14.6364 13.8683 14.6364C14.1608 14.6364 14.448 14.7134 14.7013 14.8596L14.8262 14.9262C15.2085 15.1467 15.6626 15.2065 16.0889 15.0925C16.5153 14.9785 16.8789 14.7 17.1001 14.3182L17.2834 13.9933C17.5039 13.6111 17.5637 13.1569 17.4497 12.7306C17.3357 12.3043 17.0572 11.9406 16.6753 11.7194L16.5504 11.6528C16.2962 11.506 16.0852 11.2947 15.939 11.0402C15.7927 10.7857 15.7163 10.497 15.7174 10.2035V9.78701C15.7163 9.49346 15.7927 9.20482 15.939 8.95032C16.0852 8.69581 16.2962 8.48447 16.5504 8.3377L16.6753 8.26274C17.0572 8.04155 17.3357 7.67788 17.4497 7.25155C17.5637 6.82523 17.5039 6.37109 17.2834 5.98882L17.1001 5.67231C16.8789 5.29044 16.5153 5.01194 16.0889 4.89794C15.6626 4.78394 15.2085 4.84376 14.8262 5.06427L14.7013 5.1309C14.448 5.27711 14.1608 5.35409 13.8683 5.35409C13.5759 5.35409 13.2886 5.27711 13.0354 5.1309L12.6772 4.92267C12.4242 4.7766 12.2141 4.56658 12.0679 4.31366C11.9217 4.06074 11.8446 3.77382 11.8443 3.48169V3.33176C11.8443 2.88995 11.6688 2.46623 11.3564 2.15382C11.044 1.8414 10.6202 1.66589 10.1784 1.66589Z" stroke="white" stroke-width="1.66587" stroke-linecap="round" stroke-linejoin="round"/>
<path d="M9.99514 12.4941C11.3752 12.4941 12.4939 11.3753 12.4939 9.99526C12.4939 8.61521 11.3752 7.49646 9.99514 7.49646C8.61509 7.49646 7.49634 8.61521 7.49634 9.99526C7.49634 11.3753 8.61509 12.4941 9.99514 12.4941Z" stroke="white" stroke-width="1.66587" stroke-linecap="round" stroke-linejoin="round"/>
</g>
<defs>
<clipPath id="clip0_856_19793">
<rect width="19.9904" height="19.9904" fill="white"/>
</clipPath>
</defs>
</svg>
