<svg width="20" height="20" viewBox="0 0 20 20" fill="none" xmlns="http://www.w3.org/2000/svg">
<g clip-path="url(#clip0_856_19738)">
<path d="M9.99512 5.83057V17.4917" stroke="white" stroke-width="1.66587" stroke-linecap="round" stroke-linejoin="round"/>
<path d="M2.49871 14.9928C2.2778 14.9928 2.06594 14.905 1.90973 14.7488C1.75353 14.5926 1.66577 14.3808 1.66577 14.1599V3.33171C1.66577 3.11081 1.75353 2.89895 1.90973 2.74274C2.06594 2.58653 2.2778 2.49878 2.49871 2.49878H6.66338C7.54701 2.49878 8.39445 2.8498 9.01927 3.47462C9.6441 4.09945 9.99512 4.94689 9.99512 5.83052C9.99512 4.94689 10.3461 4.09945 10.971 3.47462C11.5958 2.8498 12.4432 2.49878 13.3269 2.49878H17.4915C17.7124 2.49878 17.9243 2.58653 18.0805 2.74274C18.2367 2.89895 18.3245 3.11081 18.3245 3.33171V14.1599C18.3245 14.3808 18.2367 14.5926 18.0805 14.7488C17.9243 14.905 17.7124 14.9928 17.4915 14.9928H12.4939C11.8312 14.9928 11.1956 15.2561 10.727 15.7247C10.2584 16.1933 9.99512 16.8289 9.99512 17.4916C9.99512 16.8289 9.73185 16.1933 9.26324 15.7247C8.79462 15.2561 8.15904 14.9928 7.49631 14.9928H2.49871Z" stroke="white" stroke-width="1.66587" stroke-linecap="round" stroke-linejoin="round"/>
</g>
<defs>
<clipPath id="clip0_856_19738">
<rect width="19.9904" height="19.9904" fill="white"/>
</clipPath>
</defs>
</svg>
