<svg width="16" height="16" viewBox="0 0 16 16" fill="none" xmlns="http://www.w3.org/2000/svg">
<path d="M14.1947 7.23847C14.3133 7.18613 14.414 7.10014 14.4842 6.99114C14.5544 6.88214 14.5912 6.75493 14.5898 6.62526C14.5885 6.49559 14.5491 6.36917 14.4767 6.26164C14.4042 6.15412 14.3017 6.07023 14.1821 6.02035L8.50222 3.43301C8.32955 3.35424 8.14198 3.31348 7.9522 3.31348C7.76241 3.31348 7.57484 3.35424 7.40217 3.43301L1.723 6.0177C1.60502 6.06938 1.50466 6.15431 1.43418 6.26213C1.3637 6.36994 1.32617 6.49596 1.32617 6.62477C1.32617 6.75358 1.3637 6.8796 1.43418 6.98741C1.50466 7.09523 1.60502 7.18017 1.723 7.23184L7.40217 9.82184C7.57484 9.9006 7.76241 9.94137 7.9522 9.94137C8.14198 9.94137 8.32955 9.9006 8.50222 9.82184L14.1947 7.23847Z" stroke="white" stroke-width="1.32548" stroke-linecap="round" stroke-linejoin="round"/>
<path d="M14.5786 6.62695V10.6034" stroke="white" stroke-width="1.32548" stroke-linecap="round" stroke-linejoin="round"/>
<path d="M3.97607 8.28418V10.6038C3.97607 11.1311 4.39498 11.6368 5.14064 12.0097C5.8863 12.3825 6.89764 12.592 7.95216 12.592C9.00668 12.592 10.018 12.3825 10.7637 12.0097C11.5093 11.6368 11.9282 11.1311 11.9282 10.6038V8.28418" stroke="white" stroke-width="1.32548" stroke-linecap="round" stroke-linejoin="round"/>
</svg>
