<svg width="193" height="61" viewBox="0 0 193 61" fill="none" xmlns="http://www.w3.org/2000/svg">
<path d="M176.495 54.5252C167.54 54.5252 160.28 47.2653 160.28 38.3097C160.28 29.3542 167.54 22.0943 176.495 22.0943L189.213 22.0943C191.145 22.0943 192.71 23.6598 192.71 25.5911L192.71 51.0284C192.71 52.9596 191.145 54.5252 189.213 54.5252L176.495 54.5252Z" fill="#EDFE8E"/>
<path d="M132.33 27.3904C126.836 27.3904 122.381 22.9359 122.381 17.441C122.381 11.9461 126.836 7.49163 132.331 7.49163L154.151 7.49163C159.646 7.49163 164.101 11.9461 164.101 17.441C164.101 22.9359 159.646 27.3904 154.151 27.3904L132.33 27.3904Z" fill="#EDFE8E"/>
<path d="M144.767 28.5211C138.024 28.5211 132.557 33.9879 132.557 40.7317L132.557 50.3419C132.557 52.6523 134.43 54.5252 136.74 54.5252L149.742 54.5252C152.052 54.5252 153.925 52.6523 153.925 50.3419L153.925 28.5211L144.767 28.5211Z" fill="#EDFE8E"/>
<path d="M104.471 12.4668C110.3 12.4668 115.035 17.1338 115.15 22.9346C121.574 25.091 126.202 31.1604 126.202 38.3105C126.202 47.2658 118.941 54.5254 109.986 54.5254C101.031 54.5252 93.7715 47.2657 93.7712 38.3105C93.7712 38.0718 93.7776 37.8339 93.7878 37.5977V23.1514C93.7878 17.2507 98.5708 12.4669 104.471 12.4668Z" fill="#EDFE8E"/>
<path d="M71.0814 54.5252C62.1259 54.5252 54.866 47.2653 54.866 38.3097C54.866 29.3542 62.1259 22.0943 71.0814 22.0943L83.7997 22.0943C85.7309 22.0943 87.2965 23.6598 87.2965 25.5911L87.2965 51.0284C87.2965 52.9596 85.7309 54.5252 83.7997 54.5252L71.0814 54.5252Z" fill="#EDFE8E"/>
<path d="M48.3912 18.2323C48.3912 24.9121 42.9773 30.3274 36.2981 30.33H44.1975C46.5136 30.33 48.3912 32.2075 48.3912 34.5236V50.3316C48.3912 52.6477 46.5136 54.5252 44.1975 54.5252H36.2934C29.612 54.5252 24.1956 49.1089 24.1956 42.4276V50.3316C24.1956 52.6476 22.318 54.5252 20.0019 54.5252H4.19365C1.87756 54.5252 0 52.6477 0 50.3316V42.4276C-2.92055e-07 35.7463 5.41638 30.33 12.0978 30.33H21.3563C22.9912 30.33 24.3166 29.0046 24.3166 27.3697V10.3284C24.3166 8.01227 26.1941 6.1347 28.5102 6.1347H36.2934C42.9748 6.1347 48.3912 11.551 48.3912 18.2323Z" fill="#EDFE8E"/>
</svg>
