<svg width="16" height="16" viewBox="0 0 16 16" fill="none" xmlns="http://www.w3.org/2000/svg">
<path d="M10.6027 13.9174V12.5919C10.6027 11.8888 10.3235 11.2145 9.82635 10.7174C9.32924 10.2202 8.65502 9.94092 7.952 9.94092H3.97592C3.2729 9.94092 2.59868 10.2202 2.10157 10.7174C1.60447 11.2145 1.3252 11.8888 1.3252 12.5919V13.9174" stroke="white" stroke-width="1.32548" stroke-linecap="round" stroke-linejoin="round"/>
<path d="M5.9642 7.29022C7.42815 7.29022 8.61492 6.10334 8.61492 4.63925C8.61492 3.17516 7.42815 1.98828 5.9642 1.98828C4.50025 1.98828 3.31348 3.17516 3.31348 4.63925C3.31348 6.10334 4.50025 7.29022 5.9642 7.29022Z" stroke="white" stroke-width="1.32548" stroke-linecap="round" stroke-linejoin="round"/>
<path d="M14.5789 13.9171V12.5917C14.5784 12.0043 14.3829 11.4337 14.0231 10.9695C13.6633 10.5053 13.1595 10.1737 12.5908 10.0269" stroke="white" stroke-width="1.32548" stroke-linecap="round" stroke-linejoin="round"/>
<path d="M10.6025 2.07422C11.1727 2.22022 11.6781 2.55186 12.039 3.01684C12.3999 3.48183 12.5958 4.05372 12.5958 4.64234C12.5958 5.23097 12.3999 5.80286 12.039 6.26784C11.6781 6.73283 11.1727 7.06447 10.6025 7.21047" stroke="white" stroke-width="1.32548" stroke-linecap="round" stroke-linejoin="round"/>
</svg>
