<svg width="30" height="30" viewBox="0 0 30 30" fill="none" xmlns="http://www.w3.org/2000/svg">
<g clip-path="url(#clip0_865_3412)">
<path d="M14.5851 7.95508C14.0576 7.95508 13.5517 8.16462 13.1787 8.53761C12.8057 8.91059 12.5962 9.41647 12.5962 9.94395V14.5846C12.5962 15.1121 12.8057 15.618 13.1787 15.991C13.5517 16.364 14.0576 16.5735 14.5851 16.5735C15.1125 16.5735 15.6184 16.364 15.9914 15.991C16.3644 15.618 16.5739 15.1121 16.5739 14.5846V9.94395C16.5739 9.41647 16.3644 8.91059 15.9914 8.53761C15.6184 8.16462 15.1125 7.95508 14.5851 7.95508Z" stroke="#D9D9D9" stroke-width="1.32591" stroke-linecap="round" stroke-linejoin="round"/>
<path d="M19.2257 13.2588V14.5847C19.2257 15.8155 18.7368 16.9959 17.8665 17.8662C16.9962 18.7365 15.8158 19.2254 14.585 19.2254C13.3542 19.2254 12.1739 18.7365 11.3036 17.8662C10.4333 16.9959 9.94434 15.8155 9.94434 14.5847V13.2588" stroke="#D9D9D9" stroke-width="1.32591" stroke-linecap="round" stroke-linejoin="round"/>
<path d="M14.585 19.2256V21.2145" stroke="#D9D9D9" stroke-width="1.32591" stroke-linecap="round" stroke-linejoin="round"/>
</g>
<defs>
<clipPath id="clip0_865_3412">
<rect width="15.911" height="15.911" fill="white" transform="translate(6.62952 6.62939)"/>
</clipPath>
</defs>
</svg>
