<svg width="20" height="20" viewBox="0 0 20 20" fill="none" xmlns="http://www.w3.org/2000/svg">
<g clip-path="url(#clip0_856_19780)">
<path d="M8.55249 17.4916C8.69871 17.7448 8.909 17.9551 9.16224 18.1013C9.41547 18.2475 9.70273 18.3244 9.99513 18.3244C10.2875 18.3244 10.5748 18.2475 10.828 18.1013C11.0813 17.9551 11.2916 17.7448 11.4378 17.4916" stroke="white" stroke-width="1.66587" stroke-linecap="round" stroke-linejoin="round"/>
<path d="M2.71713 12.7656C2.60832 12.8848 2.53651 13.0332 2.51044 13.1925C2.48437 13.3518 2.50517 13.5153 2.57029 13.663C2.63542 13.8107 2.74207 13.9363 2.87727 14.0245C3.01247 14.1128 3.1704 14.1598 3.33184 14.1599H16.6588C16.8202 14.16 16.9782 14.1131 17.1135 14.0251C17.2488 13.937 17.3555 13.8115 17.4208 13.6639C17.4861 13.5163 17.5071 13.3529 17.4813 13.1935C17.4554 13.0342 17.3838 12.8858 17.2752 12.7664C16.1674 11.6245 14.9929 10.4109 14.9929 6.6635C14.9929 5.33805 14.4664 4.06689 13.5292 3.12966C12.5919 2.19243 11.3208 1.66589 9.99532 1.66589C8.66987 1.66589 7.39871 2.19243 6.46147 3.12966C5.52424 4.06689 4.99771 5.33805 4.99771 6.6635C4.99771 10.4109 3.82244 11.6245 2.71713 12.7656Z" stroke="white" stroke-width="1.66587" stroke-linecap="round" stroke-linejoin="round"/>
</g>
<defs>
<clipPath id="clip0_856_19780">
<rect width="19.9904" height="19.9904" fill="white"/>
</clipPath>
</defs>
</svg>
