<svg width="15" height="15" viewBox="0 0 15 15" fill="none" xmlns="http://www.w3.org/2000/svg">
<path d="M7.20966 14.4193C6.21232 14.4193 5.27507 14.2301 4.39789 13.8516C3.52072 13.473 2.75769 12.9594 2.10882 12.3105C1.45996 11.6616 0.946268 10.8986 0.567761 10.0214C0.189253 9.14425 0 8.20699 0 7.20966C0 6.21232 0.189253 5.27507 0.567761 4.39789C0.946268 3.52072 1.45996 2.75769 2.10882 2.10882C2.75769 1.45996 3.52072 0.946268 4.39789 0.567761C5.27507 0.189253 6.21232 0 7.20966 0C7.9907 0 8.72969 0.114153 9.42663 0.342459C10.1236 0.570765 10.7664 0.889191 11.3552 1.29774L10.3098 2.36116C9.8532 2.07278 9.36655 1.84747 8.84985 1.68526C8.33316 1.52304 7.78643 1.44193 7.20966 1.44193C5.61152 1.44193 4.25069 2.00368 3.12719 3.12719C2.00368 4.25069 1.44193 5.61152 1.44193 7.20966C1.44193 8.8078 2.00368 10.1686 3.12719 11.2921C4.25069 12.4156 5.61152 12.9774 7.20966 12.9774C8.8078 12.9774 10.1686 12.4156 11.2921 11.2921C12.4156 10.1686 12.9774 8.8078 12.9774 7.20966C12.9774 6.99337 12.9654 6.77708 12.9413 6.56079C12.9173 6.3445 12.8813 6.13422 12.8332 5.92994L14.0048 4.75837C14.1369 5.14289 14.2391 5.53942 14.3112 5.94797C14.3833 6.35651 14.4193 6.77708 14.4193 7.20966C14.4193 8.20699 14.2301 9.14425 13.8516 10.0214C13.473 10.8986 12.9594 11.6616 12.3105 12.3105C11.6616 12.9594 10.8986 13.473 10.0214 13.8516C9.14425 14.2301 8.20699 14.4193 7.20966 14.4193ZM6.20031 10.5261L3.1362 7.462L4.14555 6.45264L6.20031 8.5074L13.41 1.27971L14.4193 2.28907L6.20031 10.5261Z" fill="white"/>
</svg>
