<svg width="20" height="20" viewBox="0 0 20 20" fill="none" xmlns="http://www.w3.org/2000/svg">
<g clip-path="url(#clip0_856_19765)">
<path d="M4.99758 1.66589L2.49878 4.99763V16.6587C2.49878 17.1005 2.67429 17.5243 2.9867 17.8367C3.29911 18.1491 3.72283 18.3246 4.16465 18.3246H15.8257C16.2676 18.3246 16.6913 18.1491 17.0037 17.8367C17.3161 17.5243 17.4916 17.1005 17.4916 16.6587V4.99763L14.9928 1.66589H4.99758Z" stroke="white" stroke-width="1.66587" stroke-linecap="round" stroke-linejoin="round"/>
<path d="M2.49878 4.99756H17.4916" stroke="white" stroke-width="1.66587" stroke-linecap="round" stroke-linejoin="round"/>
<path d="M13.3271 8.32935C13.3271 9.21298 12.976 10.0604 12.3512 10.6852C11.7264 11.3101 10.8789 11.6611 9.99531 11.6611C9.11168 11.6611 8.26424 11.3101 7.63942 10.6852C7.0146 10.0604 6.66357 9.21298 6.66357 8.32935" stroke="white" stroke-width="1.66587" stroke-linecap="round" stroke-linejoin="round"/>
</g>
<defs>
<clipPath id="clip0_856_19765">
<rect width="19.9904" height="19.9904" fill="white"/>
</clipPath>
</defs>
</svg>
