<svg width="12" height="12" viewBox="0 0 12 12" fill="none" xmlns="http://www.w3.org/2000/svg">
<path d="M7.55734 1.49121C7.81962 1.49495 8.06981 1.60217 8.2534 1.78952L10.1427 3.67882C10.33 3.86241 10.4373 4.11259 10.441 4.37488V9.44615C10.441 9.70987 10.3362 9.96279 10.1498 10.1493C9.96328 10.3358 9.71036 10.4405 9.44664 10.4405H2.48607C2.22234 10.4405 1.96942 10.3358 1.78294 10.1493C1.59646 9.96279 1.4917 9.70987 1.4917 9.44615V2.48558C1.4917 2.22186 1.59646 1.96893 1.78294 1.78245C1.96942 1.59597 2.22234 1.49121 2.48607 1.49121H7.55734Z" stroke="white" stroke-width="0.994367" stroke-linecap="round" stroke-linejoin="round"/>
<path d="M8.45206 10.4408V6.96056C8.45206 6.8287 8.39968 6.70224 8.30644 6.609C8.2132 6.51576 8.08674 6.46338 7.95488 6.46338H3.97741C3.84555 6.46338 3.71909 6.51576 3.62585 6.609C3.53261 6.70224 3.48022 6.8287 3.48022 6.96056V10.4408" stroke="white" stroke-width="0.994367" stroke-linecap="round" stroke-linejoin="round"/>
<path d="M3.48022 1.49121V3.47995C3.48022 3.61181 3.53261 3.73827 3.62585 3.83151C3.71909 3.92475 3.84555 3.97713 3.97741 3.97713H7.45769" stroke="white" stroke-width="0.994367" stroke-linecap="round" stroke-linejoin="round"/>
</svg>
