<svg width="16" height="16" viewBox="0 0 16 16" fill="none" xmlns="http://www.w3.org/2000/svg">
<g clip-path="url(#clip0_865_4101)">
<path d="M10.6025 8.61561L14.0637 10.9233C14.1136 10.9565 14.1716 10.9755 14.2315 10.9784C14.2913 10.9813 14.3508 10.9678 14.4037 10.9395C14.4565 10.9113 14.5007 10.8692 14.5315 10.8177C14.5623 10.7663 14.5786 10.7075 14.5786 10.6476V5.21575C14.5786 5.15744 14.5633 5.10016 14.5341 5.04969C14.5049 4.99923 14.4629 4.95736 14.4123 4.92831C14.3618 4.89927 14.3045 4.88408 14.2462 4.88428C14.1879 4.88448 14.1306 4.90006 14.0803 4.92944L10.6025 6.95876" stroke="white" stroke-width="1.32548" stroke-linecap="round" stroke-linejoin="round"/>
<path d="M9.27737 3.97607H2.65056C1.91858 3.97607 1.3252 4.56951 1.3252 5.30156V10.6035C1.3252 11.3355 1.91858 11.929 2.65056 11.929H9.27737C10.0093 11.929 10.6027 11.3355 10.6027 10.6035V5.30156C10.6027 4.56951 10.0093 3.97607 9.27737 3.97607Z" stroke="white" stroke-width="1.32548" stroke-linecap="round" stroke-linejoin="round"/>
</g>
<defs>
<clipPath id="clip0_865_4101">
<rect width="15.9043" height="15.9058" fill="white"/>
</clipPath>
</defs>
</svg>
