<svg width="20" height="20" viewBox="0 0 20 20" fill="none" xmlns="http://www.w3.org/2000/svg">
<g clip-path="url(#clip0_856_19786)">
<path d="M9.99512 18.3246C14.5953 18.3246 18.3245 14.5954 18.3245 9.99524C18.3245 5.39507 14.5953 1.66589 9.99512 1.66589C5.39495 1.66589 1.66577 5.39507 1.66577 9.99524C1.66577 14.5954 5.39495 18.3246 9.99512 18.3246Z" stroke="white" stroke-width="1.66587" stroke-linecap="round" stroke-linejoin="round"/>
<path d="M7.57129 7.49638C7.76712 6.9397 8.15364 6.47029 8.6624 6.17129C9.17115 5.87229 9.76932 5.76299 10.3509 5.86275C10.9326 5.96252 11.4601 6.26491 11.8401 6.71636C12.2202 7.16781 12.4282 7.7392 12.4273 8.32931C12.4273 9.99518 9.92849 10.8281 9.92849 10.8281" stroke="white" stroke-width="1.66587" stroke-linecap="round" stroke-linejoin="round"/>
<path d="M9.99512 14.1599H10.0034" stroke="white" stroke-width="1.66587" stroke-linecap="round" stroke-linejoin="round"/>
</g>
<defs>
<clipPath id="clip0_856_19786">
<rect width="19.9904" height="19.9904" fill="white"/>
</clipPath>
</defs>
</svg>
