<svg width="20" height="20" viewBox="0 0 20 20" fill="none" xmlns="http://www.w3.org/2000/svg">
<g clip-path="url(#clip0_856_19760)">
<path d="M16.6587 10.8282C16.6587 14.9929 13.7435 17.0752 10.2785 18.283C10.097 18.3444 9.89992 18.3415 9.7204 18.2746C6.24706 17.0752 3.33179 14.9929 3.33179 10.8282V4.99764C3.33179 4.77673 3.41954 4.56487 3.57575 4.40867C3.73195 4.25246 3.94381 4.16471 4.16472 4.16471C5.83059 4.16471 7.91293 3.16518 9.36223 1.89912C9.5387 1.74836 9.76317 1.66553 9.99526 1.66553C10.2274 1.66553 10.4518 1.74836 10.6283 1.89912C12.0859 3.17351 14.1599 4.16471 15.8258 4.16471C16.0467 4.16471 16.2586 4.25246 16.4148 4.40867C16.571 4.56487 16.6587 4.77673 16.6587 4.99764V10.8282Z" stroke="white" stroke-width="1.66587" stroke-linecap="round" stroke-linejoin="round"/>
</g>
<defs>
<clipPath id="clip0_856_19760">
<rect width="19.9904" height="19.9904" fill="white"/>
</clipPath>
</defs>
</svg>
