<svg width="18" height="18" viewBox="0 0 18 18" fill="none" xmlns="http://www.w3.org/2000/svg">
<g clip-path="url(#clip0_855_19282)">
<path d="M11.9993 15.749V14.2491C11.9993 13.4535 11.6832 12.6905 11.1207 12.1279C10.5581 11.5653 9.79508 11.2493 8.99949 11.2493H4.49979C3.7042 11.2493 2.94119 11.5653 2.37862 12.1279C1.81605 12.6905 1.5 13.4535 1.5 14.2491V15.749" stroke="#FDF74E" stroke-width="1.4999" stroke-linecap="round" stroke-linejoin="round"/>
<path d="M6.74955 8.24947C8.40629 8.24947 9.74934 6.90641 9.74934 5.24967C9.74934 3.59293 8.40629 2.24988 6.74955 2.24988C5.09281 2.24988 3.74976 3.59293 3.74976 5.24967C3.74976 6.90641 5.09281 8.24947 6.74955 8.24947Z" stroke="#FDF74E" stroke-width="1.4999" stroke-linecap="round" stroke-linejoin="round"/>
<path d="M16.4989 15.7489V14.249C16.4984 13.5843 16.2772 12.9386 15.8699 12.4133C15.4627 11.888 14.8926 11.5128 14.249 11.3467" stroke="#FDF74E" stroke-width="1.4999" stroke-linecap="round" stroke-linejoin="round"/>
<path d="M11.9993 2.34729C12.6445 2.5125 13.2165 2.88778 13.6249 3.41395C14.0333 3.94012 14.255 4.58726 14.255 5.25334C14.255 5.91942 14.0333 6.56656 13.6249 7.09273C13.2165 7.6189 12.6445 7.99418 11.9993 8.15939" stroke="#FDF74E" stroke-width="1.4999" stroke-linecap="round" stroke-linejoin="round"/>
</g>
<defs>
<clipPath id="clip0_855_19282">
<rect width="17.9988" height="17.9988" fill="white"/>
</clipPath>
</defs>
</svg>
