<svg width="18" height="18" viewBox="0 0 18 18" fill="none" xmlns="http://www.w3.org/2000/svg">
<g clip-path="url(#clip0_855_19306)">
<path d="M8.99927 5.24963V15.7489" stroke="#FDF74E" stroke-width="1.4999" stroke-linecap="round" stroke-linejoin="round"/>
<path d="M2.24995 13.4991C2.05105 13.4991 1.8603 13.4201 1.71965 13.2795C1.57901 13.1388 1.5 12.9481 1.5 12.7492V2.99983C1.5 2.80093 1.57901 2.61018 1.71965 2.46953C1.8603 2.32889 2.05105 2.24988 2.24995 2.24988H5.99969C6.79529 2.24988 7.5583 2.56593 8.12087 3.1285C8.68344 3.69107 8.99949 4.45408 8.99949 5.24967C8.99949 4.45408 9.31553 3.69107 9.8781 3.1285C10.4407 2.56593 11.2037 2.24988 11.9993 2.24988H15.749C15.9479 2.24988 16.1387 2.32889 16.2793 2.46953C16.42 2.61018 16.499 2.80093 16.499 2.99983V12.7492C16.499 12.9481 16.42 13.1388 16.2793 13.2795C16.1387 13.4201 15.9479 13.4991 15.749 13.4991H11.2493C10.6526 13.4991 10.0804 13.7361 9.65845 14.1581C9.23652 14.58 8.99949 15.1523 8.99949 15.749C8.99949 15.1523 8.76245 14.58 8.34052 14.1581C7.91859 13.7361 7.34634 13.4991 6.74964 13.4991H2.24995Z" stroke="#FDF74E" stroke-width="1.4999" stroke-linecap="round" stroke-linejoin="round"/>
</g>
<defs>
<clipPath id="clip0_855_19306">
<rect width="17.9988" height="17.9988" fill="white"/>
</clipPath>
</defs>
</svg>
