<svg width="18" height="18" viewBox="0 0 18 18" fill="none" xmlns="http://www.w3.org/2000/svg">
<path d="M8.24934 16.2964C8.47736 16.4281 8.73601 16.4974 8.99929 16.4974C9.26258 16.4974 9.52123 16.4281 9.74924 16.2964L14.9989 13.2966C15.2267 13.1651 15.4159 12.976 15.5475 12.7483C15.6791 12.5206 15.7486 12.2622 15.7488 11.9992V5.99962C15.7486 5.73659 15.6791 5.47826 15.5475 5.25054C15.4159 5.02282 15.2267 4.83372 14.9989 4.70221L9.74924 1.70241C9.52123 1.57077 9.26258 1.50146 8.99929 1.50146C8.73601 1.50146 8.47736 1.57077 8.24934 1.70241L2.9997 4.70221C2.77192 4.83372 2.58272 5.02282 2.45109 5.25054C2.31946 5.47826 2.25003 5.73659 2.24976 5.99962V11.9992C2.25003 12.2622 2.31946 12.5206 2.45109 12.7483C2.58272 12.976 2.77192 13.1651 2.9997 13.2966L8.24934 16.2964Z" stroke="#FDF74E" stroke-width="1.4999" stroke-linecap="round" stroke-linejoin="round"/>
<path d="M8.99927 16.4989V8.99939" stroke="#FDF74E" stroke-width="1.4999" stroke-linecap="round" stroke-linejoin="round"/>
<path d="M2.46729 5.24963L8.99934 8.99938L15.5314 5.24963" stroke="#FDF74E" stroke-width="1.4999" stroke-linecap="round" stroke-linejoin="round"/>
<path d="M5.62451 3.20227L12.374 7.06451" stroke="#FDF74E" stroke-width="1.4999" stroke-linecap="round" stroke-linejoin="round"/>
</svg>
